
<svg version="1.0" xmlns="http://www.w3.org/2000/svg"
 width="308.000000pt" height="308.000000pt" viewBox="0 0 1080.000000 1080.000000"
 preserveAspectRatio="xMidYMid meet">

<g transform="translate(0.000000,1080.000000) scale(0.100000,-0.100000)"
fill="#aaa" stroke="none">
<path d="M5607 9237 c-114 -226 -207 -419 -207 -428 0 -17 19 -29 45 -29 7 0
39 52 70 115 32 64 60 117 64 119 15 8 416 -35 427 -47 11 -11 34 -78 34 -102
1 -11 11 -49 23 -85 19 -57 25 -65 50 -68 25 -3 27 -1 27 33 0 19 -7 52 -15
72 -8 19 -15 43 -15 53 0 10 -7 40 -15 66 -20 67 -62 228 -88 340 -7 33 -17
66 -21 72 -3 6 -11 37 -17 69 -6 32 -14 63 -19 68 -4 6 -10 30 -14 53 -4 24
-13 59 -21 78 -13 31 -17 34 -57 34 l-43 0 -208 -413z m281 228 c29 -101 42
-153 52 -210 5 -27 14 -59 19 -70 13 -28 32 -127 26 -133 -7 -8 -112 -3 -159
7 -23 5 -80 12 -128 16 -49 4 -88 8 -88 11 0 3 189 385 225 454 21 40 20 41
53 -75z"/>
<path d="M6452 9508 c-11 -46 -37 -123 -59 -175 -7 -17 -13 -38 -13 -47 0 -8
-6 -30 -14 -48 -15 -35 -74 -213 -87 -263 -4 -16 -26 -82 -48 -145 -22 -63
-41 -120 -41 -126 0 -7 60 -31 133 -54 72 -23 150 -50 172 -59 28 -11 71 -16
150 -16 111 0 111 0 153 34 70 55 102 146 88 246 -6 35 -17 55 -55 94 -50 51
-49 61 4 61 33 0 91 54 121 111 30 59 34 160 7 199 -43 65 -132 130 -178 130
-8 0 -23 4 -33 10 -22 13 -260 90 -277 90 -7 0 -18 -19 -23 -42z m176 -74 c15
-8 34 -14 42 -14 20 0 120 -41 153 -63 72 -47 95 -106 72 -183 -14 -49 -48
-90 -92 -113 -36 -18 -94 -13 -189 18 -49 15 -109 34 -133 42 -55 17 -74 34
-62 57 5 10 22 56 36 102 15 47 31 94 36 105 5 11 13 33 19 48 10 27 13 28 51
22 22 -4 53 -13 67 -21z m-191 -368 c21 -8 72 -24 113 -36 210 -63 270 -111
270 -217 0 -55 -41 -130 -87 -160 -46 -30 -148 -23 -276 20 -60 21 -116 37
-125 37 -37 1 -69 49 -43 65 5 3 13 20 16 38 4 17 23 79 42 137 19 58 37 111
39 118 4 15 5 15 51 -2z"/>
<path d="M3601 9282 c-21 -16 -22 -19 -7 -31 9 -7 16 -19 16 -26 0 -11 31 -85
80 -190 11 -22 24 -51 29 -65 6 -14 15 -32 19 -40 22 -39 42 -82 42 -90 0 -9
38 -95 100 -225 15 -33 38 -82 51 -110 12 -27 23 -51 24 -53 1 -1 14 3 29 9
29 14 33 37 13 77 -15 30 -34 71 -68 147 -35 79 -79 176 -99 220 -52 112 -90
196 -90 200 0 5 -66 152 -79 175 -12 22 -35 23 -60 2z"/>
<path d="M7285 9188 c-28 -52 -157 -279 -176 -308 -5 -8 -14 -26 -20 -40 -6
-14 -16 -32 -24 -40 -7 -8 -30 -47 -51 -87 -60 -110 -68 -125 -96 -170 -42
-65 -45 -90 -13 -105 33 -15 32 -16 117 137 33 61 71 127 84 147 28 44 24 45
170 -39 l91 -53 -4 -78 c-2 -42 -8 -102 -14 -132 -6 -30 -14 -91 -18 -134 -6
-70 -5 -82 11 -98 10 -10 24 -18 31 -18 18 0 35 98 48 270 6 80 15 149 19 154
5 5 41 11 81 13 99 6 154 45 200 141 47 96 31 198 -42 270 -33 33 -112 92
-123 92 -3 0 -55 29 -115 65 -60 36 -114 65 -119 65 -5 0 -21 -24 -37 -52z
m159 -93 c42 -25 79 -45 82 -45 11 0 96 -70 117 -96 15 -20 22 -45 25 -88 3
-54 0 -66 -27 -109 -40 -61 -82 -87 -146 -87 -42 -1 -69 9 -163 57 -62 32
-125 67 -139 79 l-26 20 89 157 c49 86 94 157 100 157 7 0 47 -20 88 -45z"/>
<path d="M4738 9142 c-42 -40 -43 -42 -43 -104 0 -74 19 -107 78 -134 75 -34
161 -5 197 67 23 45 25 78 6 122 -25 58 -59 81 -131 85 -63 4 -64 4 -107 -36z"/>
<path d="M3198 9066 c-68 -24 -362 -207 -366 -228 -2 -8 13 -38 33 -67 19 -29
35 -55 35 -57 0 -4 30 -51 145 -229 18 -27 50 -78 71 -113 22 -34 56 -88 76
-120 20 -31 50 -80 67 -108 16 -28 37 -54 46 -58 10 -4 33 5 58 23 38 26 74
49 234 150 59 37 129 108 144 149 6 15 12 56 12 93 1 86 -37 158 -109 208 -47
32 -52 33 -121 29 l-71 -5 14 22 c9 14 15 48 15 88 2 167 -136 275 -283 223z
m129 -81 c17 -8 44 -32 60 -56 23 -36 28 -53 28 -106 0 -61 -2 -64 -45 -108
-24 -25 -48 -45 -52 -45 -11 0 -175 -107 -183 -119 -15 -26 -39 -5 -99 87 -35
54 -74 117 -87 140 l-24 43 35 29 c19 16 39 30 43 30 4 0 20 9 35 19 100 71
198 114 237 104 11 -3 34 -11 52 -18z m268 -331 c54 -35 85 -93 85 -159 0 -83
-39 -131 -169 -211 -42 -26 -85 -55 -96 -64 -21 -18 -84 -45 -88 -39 -2 2 -15
21 -30 41 -15 20 -27 39 -27 43 0 3 -23 40 -51 82 -79 120 -92 153 -58 153 6
0 48 25 95 56 196 129 260 147 339 98z"/>
<path d="M8220 8596 c-14 -8 -45 -24 -70 -37 -25 -13 -108 -56 -185 -97 -77
-41 -169 -90 -205 -109 -36 -18 -74 -39 -85 -45 -11 -6 -27 -15 -35 -19 -113
-57 -218 -113 -228 -122 -11 -9 -9 -14 10 -29 13 -9 29 -18 36 -18 11 0 111
49 136 68 6 5 30 16 53 26 l41 18 69 -58 c37 -31 110 -96 161 -143 100 -93
101 -94 67 -166 -59 -129 -68 -177 -33 -196 18 -10 24 -8 35 7 7 10 13 26 13
35 0 10 4 20 9 23 5 3 12 18 15 33 4 16 22 66 41 113 47 118 99 256 120 315
10 28 24 64 31 82 8 17 14 35 14 40 1 4 9 26 20 48 11 22 19 47 20 56 0 8 4
19 9 25 4 5 16 32 25 59 l17 50 -31 28 c-35 31 -37 31 -70 13z m10 -88 c0 -11
-46 -136 -75 -203 -7 -16 -23 -57 -35 -90 -44 -116 -77 -195 -84 -195 -3 0
-48 37 -100 83 -52 45 -113 97 -135 115 -65 52 -65 51 99 131 35 18 67 35 70
39 3 4 49 30 103 57 53 28 107 56 120 62 28 16 37 16 37 1z"/>
<path d="M2355 8440 c-29 -30 -29 -31 -13 -63 10 -17 29 -61 44 -97 14 -36 39
-94 56 -130 16 -36 33 -74 38 -85 42 -98 63 -144 75 -167 8 -14 15 -33 15 -41
0 -8 7 -20 15 -27 8 -7 15 -21 15 -31 0 -10 15 -51 33 -91 65 -141 65 -120 0
-215 -32 -46 -69 -101 -83 -121 -14 -21 -40 -58 -59 -82 -19 -25 -36 -46 -37
-48 -3 -5 -47 19 -54 28 -5 7 -72 55 -175 124 -33 23 -64 45 -70 49 -5 5 -31
23 -56 40 -25 18 -91 64 -145 102 -54 39 -106 75 -115 80 -9 6 -28 19 -43 29
-27 19 -27 19 -49 -3 -16 -16 -19 -25 -12 -37 9 -13 84 -66 417 -296 27 -18
60 -43 75 -56 16 -12 51 -37 78 -54 28 -18 52 -35 55 -38 13 -16 86 -60 100
-60 9 0 42 38 75 85 33 47 93 132 133 188 108 150 107 148 81 204 -57 124 -79
175 -79 182 0 12 278 285 300 295 20 9 49 -2 198 -72 l53 -25 25 25 25 25 -23
14 c-13 8 -99 50 -193 94 -93 43 -230 107 -304 142 -73 35 -135 63 -136 63 -2
0 -51 23 -109 50 -58 28 -109 50 -114 50 -5 0 -21 -14 -37 -30z m153 -96 c140
-65 156 -72 277 -130 66 -32 122 -59 124 -61 5 -4 -260 -262 -269 -263 -7 0
-30 47 -95 195 -15 33 -31 69 -36 80 -5 11 -13 31 -19 45 -5 14 -14 32 -19 40
-11 17 -51 116 -51 124 0 10 9 7 88 -30z"/>
<path d="M8650 8103 c-41 -30 -87 -66 -102 -79 -15 -13 -30 -24 -33 -24 -3 0
-34 -21 -69 -47 -119 -91 -279 -208 -325 -239 -25 -17 -64 -47 -86 -67 l-40
-36 25 -24 25 -25 160 119 c87 65 164 119 170 119 13 0 65 -52 65 -64 0 -4 20
-33 43 -64 80 -104 187 -254 187 -262 0 -4 -21 -21 -47 -38 -60 -39 -142 -98
-168 -121 -11 -9 -42 -32 -68 -49 -51 -36 -57 -50 -29 -75 26 -24 34 -22 85
23 25 22 48 40 52 40 4 0 38 24 76 53 38 28 100 75 140 102 39 28 90 66 114
85 25 19 76 58 115 85 176 124 177 126 140 160 -18 17 -21 16 -74 -21 -152
-108 -192 -138 -199 -150 -4 -8 -14 -14 -21 -14 -8 0 -19 -7 -26 -15 -7 -8
-18 -15 -25 -15 -14 0 -87 95 -244 316 -59 83 -59 76 9 122 14 9 71 51 127 94
56 42 111 82 122 88 26 13 26 19 -2 51 l-22 26 -75 -54z"/>
<path d="M1655 7298 c-153 -53 -235 -143 -280 -304 -25 -91 -8 -212 39 -284
41 -62 136 -148 205 -184 141 -74 275 -91 401 -51 197 63 319 312 249 510 -11
33 -37 82 -57 108 -65 85 -205 175 -310 198 -68 16 -212 20 -247 7z m171 -69
c164 -23 333 -144 382 -275 27 -74 28 -103 0 -185 -26 -80 -55 -125 -104 -168
-49 -44 -91 -61 -168 -68 -155 -14 -303 44 -415 164 -63 67 -68 75 -81 141
-34 184 77 363 242 391 29 5 56 9 60 10 4 0 42 -4 84 -10z"/>
<path d="M8965 7109 c-49 -3 -193 -12 -320 -18 -126 -7 -233 -15 -236 -19 -10
-10 8 -52 23 -53 7 -1 71 -2 143 -3 l129 -1 7 -30 c3 -16 23 -66 44 -110 64
-136 82 -179 96 -218 l13 -37 -94 -95 -93 -94 17 -26 c10 -14 21 -25 26 -23 4
2 157 150 339 330 226 223 331 334 331 348 0 12 -5 30 -10 41 -10 18 -22 19
-168 17 -86 -1 -197 -5 -247 -9z m335 -58 c0 -11 -370 -371 -381 -371 -5 0 -9
4 -9 10 0 9 -34 85 -101 225 -15 33 -31 72 -34 86 l-6 26 98 8 c99 8 298 20
386 23 26 1 47 -2 47 -7z"/>
<path d="M9540 6498 c-19 -5 -63 -13 -96 -18 -67 -10 -187 -32 -299 -54 -84
-18 -176 -33 -270 -46 -38 -6 -89 -17 -113 -26 -36 -14 -42 -19 -36 -37 11
-37 20 -40 76 -28 29 7 84 17 121 22 37 5 93 16 124 24 32 8 71 15 88 15 17 0
54 6 81 14 27 8 75 17 108 20 32 4 66 10 75 15 9 5 44 11 79 14 62 5 63 5 46
-14 -9 -10 -21 -19 -26 -19 -7 0 -114 -59 -193 -107 -11 -7 -33 -19 -50 -28
-16 -8 -55 -30 -86 -48 -192 -111 -303 -174 -327 -186 -44 -21 -55 -45 -41
-91 11 -37 15 -40 58 -45 25 -3 64 -11 86 -16 22 -6 74 -14 115 -19 41 -5 101
-14 133 -19 100 -19 170 -31 242 -42 39 -6 104 -18 146 -27 73 -16 75 -17 50
-30 -14 -7 -66 -18 -114 -23 -49 -5 -97 -13 -107 -19 -10 -5 -35 -10 -55 -10
-21 0 -67 -7 -104 -14 -139 -31 -252 -51 -338 -62 -46 -6 -56 -22 -39 -62 7
-17 15 -22 30 -17 12 3 46 10 76 16 30 5 87 16 125 24 72 14 163 29 270 46 33
5 89 15 125 23 36 8 94 20 130 26 93 15 120 21 124 29 3 3 1 31 -2 61 l-7 55
-75 13 c-41 6 -113 19 -160 27 -47 7 -121 19 -165 25 -44 6 -109 18 -145 26
-36 8 -96 18 -135 23 -74 10 -178 30 -183 36 -4 4 65 49 113 75 31 17 160 89
223 126 21 12 57 33 82 46 25 13 65 37 90 53 49 31 139 82 208 117 38 20 42
25 36 48 -4 14 -10 41 -13 60 -7 39 -23 45 -81 28z"/>
<path d="M1264 6356 c-47 -22 -114 -89 -114 -115 0 -7 -8 -24 -17 -38 -27 -40
-26 -234 1 -283 38 -71 88 -106 167 -115 118 -14 180 30 249 180 102 221 111
235 171 265 46 24 71 25 132 4 32 -11 57 -29 79 -57 32 -41 33 -43 32 -142 0
-87 -3 -106 -26 -150 -41 -79 -103 -128 -175 -140 -41 -6 -43 -9 -43 -40 0
-19 3 -36 8 -38 17 -9 135 30 175 59 85 61 147 234 132 367 -7 59 -43 140 -73
164 -47 39 -118 63 -183 63 -57 0 -71 -4 -105 -29 -21 -15 -49 -39 -61 -52
-23 -25 -72 -122 -114 -223 -15 -36 -44 -80 -76 -112 -43 -46 -57 -54 -88 -54
-47 0 -104 30 -135 72 -22 30 -24 42 -23 123 1 74 5 98 25 134 32 59 86 101
144 112 56 11 51 7 59 42 7 27 7 27 -41 27 -30 0 -68 -9 -100 -24z"/>
<path d="M9006 5099 c-76 -28 -117 -67 -160 -153 -40 -76 -40 -77 -40 -194 -1
-109 1 -120 26 -163 49 -83 129 -128 228 -128 98 0 179 70 229 197 84 214 111
256 181 286 33 13 40 13 89 -7 44 -18 58 -30 78 -67 22 -41 24 -53 20 -136 -5
-80 -9 -96 -35 -135 -34 -49 -72 -75 -128 -87 -36 -7 -39 -11 -42 -45 -4 -43
2 -45 74 -21 88 30 129 66 170 149 21 43 24 64 24 158 0 98 -2 113 -26 155
-28 51 -41 63 -94 91 -87 46 -168 34 -234 -33 -42 -44 -68 -95 -138 -269 -13
-33 -42 -80 -64 -105 l-42 -47 -73 0 c-63 0 -79 4 -107 25 -57 43 -74 80 -74
168 0 97 13 144 53 205 36 54 79 84 136 93 41 6 53 20 53 67 0 22 -39 21 -104
-4z"/>
<path d="M1920 4983 c-8 -2 -24 -8 -35 -13 -11 -5 -42 -11 -70 -14 -27 -4 -63
-10 -80 -16 -16 -5 -75 -19 -130 -30 -55 -12 -120 -26 -145 -32 -25 -6 -73
-17 -108 -24 -110 -24 -186 -41 -240 -55 -50 -13 -52 -16 -46 -39 4 -14 10
-41 13 -60 6 -33 9 -35 46 -38 22 -1 78 -9 125 -16 47 -8 119 -17 160 -21 41
-3 95 -10 120 -15 25 -6 92 -14 150 -20 140 -12 270 -32 270 -40 0 -6 -49 -39
-193 -129 -32 -20 -108 -68 -170 -108 -62 -40 -134 -86 -162 -104 -27 -17 -85
-53 -129 -80 l-78 -50 6 -41 c10 -63 23 -81 54 -74 15 3 52 11 82 17 30 5 78
16 105 24 65 18 205 49 350 78 39 7 86 18 105 24 19 7 60 17 90 23 30 6 67 13
83 17 22 4 27 11 27 34 0 18 -6 32 -15 36 -14 5 -101 -12 -265 -52 -83 -20
-147 -34 -226 -49 -39 -8 -80 -18 -90 -24 -11 -5 -43 -12 -73 -15 -29 -4 -59
-11 -66 -17 -8 -6 -29 -10 -47 -8 l-33 3 48 33 c26 17 50 32 53 32 5 0 49 27
154 96 25 16 52 32 60 36 8 5 42 26 75 47 33 22 84 54 114 73 30 18 66 41 80
50 14 10 42 26 62 37 20 11 50 32 67 46 29 24 30 26 17 68 l-12 42 -59 6 c-32
3 -69 9 -81 13 -12 4 -84 13 -160 21 -76 8 -163 19 -193 24 -30 5 -84 10 -120
10 -36 1 -87 8 -114 16 -27 8 -64 15 -82 15 -81 0 -31 34 64 44 29 3 68 10 85
15 59 18 161 42 218 50 30 5 71 13 90 19 41 12 158 39 214 48 62 10 72 19 67
54 -5 34 -10 39 -32 33z"/>
<path d="M8920 4340 c-90 -22 -108 -29 -145 -52 -85 -55 -141 -132 -176 -242
-25 -80 -24 -157 3 -237 18 -54 33 -76 99 -142 59 -59 94 -85 151 -112 77 -35
196 -65 260 -65 53 0 150 27 202 56 120 67 202 228 193 378 -4 71 -32 166 -48
166 -5 0 -9 5 -9 11 0 39 -122 142 -220 187 -94 43 -245 68 -310 52z m146 -80
c167 -27 320 -141 365 -272 24 -69 23 -105 -1 -179 -35 -102 -86 -168 -166
-210 -61 -33 -201 -38 -293 -10 -193 59 -321 196 -321 345 0 84 36 176 92 237
80 86 177 113 324 89z"/>
<path d="M2059 4048 c-78 -88 -72 -81 -245 -264 -249 -264 -324 -348 -324
-369 0 -11 9 -31 19 -45 22 -28 57 -29 196 -4 44 8 112 14 150 15 39 0 95 5
125 10 30 5 116 13 190 19 117 8 171 15 278 36 25 5 28 22 10 47 -12 16 -22
16 -118 6 -58 -7 -116 -12 -129 -13 -20 -1 -31 13 -72 94 -27 52 -49 99 -49
104 0 5 -6 17 -13 25 -7 9 -24 41 -37 71 -13 30 -30 62 -37 71 -12 14 -3 28
76 112 82 87 89 98 82 124 -4 15 -14 29 -22 31 -9 1 -44 -30 -80 -70z m46
-568 c-4 -6 -23 -10 -43 -10 -20 0 -68 -7 -107 -15 -38 -8 -99 -15 -135 -15
-65 0 -172 -13 -200 -24 -8 -3 -21 -2 -29 3 -11 7 9 35 94 128 60 65 143 153
184 196 l76 77 83 -165 c45 -91 80 -170 77 -175z"/>
<path d="M8383 3576 c-258 -398 -254 -389 -238 -417 8 -13 17 -31 21 -39 30
-66 58 -121 65 -126 28 -17 0 -58 -136 -206 l-145 -157 -48 20 c-26 11 -56 24
-67 29 -11 5 -44 19 -73 31 l-53 22 -25 -24 c-29 -27 -23 -36 46 -63 25 -10
59 -24 75 -32 89 -38 104 -44 110 -44 4 0 29 -10 54 -21 50 -24 55 -25 151
-64 60 -24 105 -43 155 -65 108 -48 224 -93 250 -97 37 -6 75 23 75 56 0 10
-36 90 -79 177 -44 88 -85 171 -90 184 -11 25 -16 35 -39 75 -7 11 -15 27 -18
35 -6 16 -49 104 -64 130 -27 50 -90 190 -90 202 0 7 31 63 70 123 38 61 85
135 103 165 18 30 40 56 48 58 8 1 56 -25 107 -58 51 -33 94 -60 97 -60 2 0
24 -13 47 -29 122 -82 215 -141 222 -141 4 0 28 -16 53 -35 25 -19 52 -35 59
-35 8 0 14 -3 14 -7 0 -12 85 -63 103 -63 16 0 37 28 37 49 0 5 -17 19 -37 32
-21 12 -74 45 -118 74 -220 142 -252 163 -282 181 -17 10 -77 48 -133 84 -56
36 -121 77 -144 91 l-44 27 -39 -62z m-79 -733 c9 -21 21 -46 26 -55 6 -10 15
-26 20 -35 6 -10 15 -29 21 -43 10 -25 43 -93 58 -120 5 -8 19 -37 31 -65 13
-27 28 -57 35 -65 7 -8 15 -25 18 -37 6 -25 -10 -30 -41 -13 -9 5 -62 28 -117
50 -55 23 -113 47 -130 54 -16 7 -57 24 -90 37 -33 13 -73 31 -89 41 l-29 17
89 93 c49 52 106 113 127 136 21 23 42 42 47 42 4 0 15 -17 24 -37z"/>
<path d="M2439 3362 c-29 -27 -73 -61 -95 -78 -23 -16 -97 -74 -164 -129 -68
-55 -147 -118 -175 -140 -48 -37 -89 -70 -168 -136 -30 -26 -31 -27 -14 -53
22 -33 29 -33 74 7 41 36 195 158 245 194 l31 23 39 -45 c21 -24 53 -64 71
-88 18 -25 67 -88 110 -140 42 -53 77 -102 77 -110 0 -8 -34 -41 -75 -73 -42
-33 -105 -81 -140 -109 -97 -75 -98 -76 -79 -103 8 -12 22 -22 31 -22 12 0
102 66 123 91 3 3 30 24 60 47 30 22 87 66 125 97 39 31 110 89 159 128 236
190 242 196 209 228 l-22 22 -48 -42 c-97 -84 -265 -211 -277 -211 -8 0 -41
36 -75 80 -34 43 -68 85 -75 92 -7 7 -29 35 -50 62 -20 27 -54 69 -73 93 l-37
45 40 36 c22 21 58 49 79 65 22 15 58 43 80 63 22 19 59 49 83 65 23 17 42 33
42 37 0 15 -31 52 -44 52 -6 0 -37 -22 -67 -48z"/>
<path d="M2909 2828 c-6 -24 -15 -51 -20 -60 -5 -10 -13 -34 -18 -55 -12 -46
-70 -221 -82 -245 -5 -10 -13 -34 -18 -55 -11 -45 -68 -215 -88 -260 -7 -17
-13 -38 -13 -48 0 -9 -6 -28 -14 -43 -28 -56 -30 -92 -5 -118 12 -13 31 -24
42 -24 11 0 93 43 181 95 192 114 170 101 281 165 50 28 97 55 105 60 24 15
178 103 212 122 46 25 53 35 38 53 -26 32 -86 12 -201 -66 -55 -37 -70 -35
-145 28 -39 32 -112 92 -162 133 -51 41 -92 80 -92 87 0 7 16 61 36 119 31 87
35 109 26 129 -19 41 -49 32 -63 -17z m42 -364 c30 -26 88 -73 129 -104 42
-32 81 -64 88 -73 13 -16 0 -25 -149 -109 -27 -15 -68 -40 -91 -55 -24 -15
-56 -34 -73 -43 -16 -9 -56 -31 -88 -49 l-58 -33 7 28 c4 16 15 52 24 79 10
28 29 86 43 130 21 65 69 202 92 263 7 20 18 15 76 -34z"/>
<path d="M7584 2638 c-16 -12 -31 -25 -34 -28 -3 -3 -16 -11 -30 -19 -14 -8
-76 -50 -138 -94 -90 -64 -121 -92 -152 -141 -37 -56 -40 -66 -40 -131 0 -62
4 -76 33 -120 17 -27 52 -65 77 -83 44 -33 46 -34 122 -30 l77 5 -15 -35 c-29
-70 -12 -149 48 -225 78 -99 196 -101 335 -7 28 19 97 66 153 104 56 38 104
75 107 82 3 8 -8 31 -24 51 -16 21 -41 56 -55 78 -47 70 -182 268 -223 325
-57 80 -111 158 -149 215 -50 75 -58 79 -92 53z m72 -156 c21 -32 53 -75 71
-98 18 -23 33 -44 33 -48 0 -4 10 -21 23 -37 l22 -31 -21 -16 c-32 -26 -61
-47 -174 -124 -104 -71 -106 -72 -170 -73 -75 0 -105 17 -152 88 -78 118 -4
225 271 394 42 26 45 24 97 -55z m216 -309 c15 -15 28 -31 28 -36 0 -4 29 -50
65 -102 36 -51 65 -97 65 -103 0 -9 -105 -85 -215 -155 -89 -57 -191 -43 -242
33 -56 82 -45 161 35 230 40 36 220 160 231 160 3 0 18 -12 33 -27z"/>
<path d="M3531 2363 c0 -16 -4 -93 -10 -173 -6 -80 -11 -164 -11 -187 l0 -43
-42 0 c-69 0 -117 -19 -165 -63 -59 -54 -93 -128 -93 -202 0 -113 60 -177 260
-279 74 -38 144 -75 155 -82 11 -8 23 -14 27 -14 4 0 37 60 74 133 37 72 91
179 121 237 30 58 92 178 139 267 l84 162 -27 20 c-14 12 -28 21 -32 21 -3 0
-42 -71 -86 -158 -44 -86 -86 -165 -93 -174 -13 -16 -23 -13 -134 44 l-121 62
6 91 c3 49 11 146 17 215 10 114 9 126 -6 137 -10 7 -28 13 -41 13 -19 0 -23
-5 -22 -27z m13 -488 c11 -8 25 -15 32 -15 7 0 40 -16 74 -35 34 -19 66 -35
71 -35 6 0 23 -9 38 -21 30 -22 32 -47 7 -79 -7 -8 -38 -67 -71 -130 -32 -63
-62 -121 -68 -127 -11 -15 -47 -17 -47 -4 0 5 -9 13 -21 16 -31 10 -208 114
-227 134 -25 25 -52 88 -51 119 0 30 26 96 49 128 8 12 31 31 50 43 42 25 134
29 164 6z"/>
<path d="M6947 2232 c-16 -17 -5 -42 179 -408 108 -214 200 -393 205 -398 12
-13 59 10 59 29 0 8 -80 171 -177 362 -97 192 -186 367 -197 391 -22 46 -43
53 -69 24z"/>
<path d="M4174 1991 c-21 -15 -48 -39 -60 -52 -25 -29 -54 -115 -54 -163 0
-51 34 -120 74 -151 36 -28 39 -45 7 -45 -10 0 -37 -14 -60 -30 -80 -59 -116
-202 -72 -288 22 -44 42 -62 96 -89 61 -30 90 -40 268 -87 28 -8 65 -19 80
-25 67 -26 58 -44 152 294 32 116 57 202 67 235 6 19 15 51 19 70 4 19 22 82
39 140 35 117 35 116 -37 138 -21 6 -69 20 -107 32 -38 11 -77 20 -87 20 -9 0
-30 7 -45 15 -20 10 -61 15 -135 15 -101 0 -108 -1 -145 -29z m248 -42 c20
-11 43 -17 180 -52 26 -7 52 -17 57 -22 11 -11 3 -55 -29 -160 -12 -38 -29
-95 -37 -127 -17 -62 -40 -78 -77 -52 -11 7 -29 14 -40 14 -11 0 -38 6 -61 14
-22 8 -73 24 -113 36 -126 36 -183 111 -161 213 13 61 29 87 73 119 34 25 48
28 113 28 41 0 84 -5 95 -11z m-124 -420 c26 -5 70 -17 97 -25 28 -8 69 -19
92 -24 57 -14 77 -34 61 -63 -6 -12 -18 -46 -25 -74 -32 -126 -41 -160 -51
-184 -11 -27 -11 -27 -64 -14 -283 69 -348 115 -335 240 12 122 94 174 225
144z"/>
<path d="M4803 1889 c3 -13 10 -37 15 -54 6 -16 17 -55 26 -85 35 -126 58
-197 72 -223 8 -16 14 -40 14 -54 0 -14 6 -39 14 -56 8 -18 19 -50 24 -72 6
-22 15 -53 20 -70 6 -16 15 -46 22 -65 13 -41 35 -116 53 -180 l12 -45 50 -3
50 -3 29 68 c33 76 81 181 133 293 20 41 52 113 73 160 21 47 52 117 70 155
68 146 80 179 76 192 -9 22 -76 13 -76 -10 0 -5 -12 -35 -26 -66 -14 -31 -31
-69 -39 -86 -8 -16 -16 -38 -19 -47 -5 -15 -18 -18 -81 -18 -42 0 -106 4 -143
10 -37 5 -102 12 -145 16 -68 5 -79 9 -86 27 -13 34 -50 159 -57 190 -7 32 -8
32 -53 42 -32 7 -33 6 -28 -16z m409 -325 c64 -4 122 -10 128 -14 13 -8 -21
-91 -146 -358 -19 -40 -34 -79 -34 -86 0 -8 -7 -19 -15 -26 -21 -18 -40 5 -49
59 -4 25 -13 59 -20 75 -7 17 -18 51 -25 76 -18 67 -66 238 -77 273 -6 19 -3
20 57 14 35 -4 117 -10 181 -13z"/>
<path d="M6103 1779 c-48 -10 -78 -33 -102 -79 -27 -51 -27 -79 1 -131 28 -55
69 -79 136 -79 48 0 57 4 95 39 41 38 42 41 42 103 0 47 -5 70 -20 90 -37 49
-93 70 -152 57z"/>
</g>
</svg>
